{
  "accessors": [
    {
      "bufferView": 2,
      "componentType": 5126,
      "count": 22146,
      "max": [
        0.21040299534797668,
        0.9904879927635193,
        0.05601299926638603
      ],
      "min": [
        -0.2143460065126419,
        -0.992467999458313,
        -0.05202300101518631
      ],
      "type": "VEC3"
    },
    {
      "bufferView": 2,
      "byteOffset": 265752,
      "componentType": 5126,
      "count": 22146,
      "max": [
        0.9999867677688599,
        0.9971262216567993,
        0.9999997615814209
      ],
      "min": [
        -0.9999985694885254,
        -0.9986804127693176,
        -0.9999840259552002
      ],
      "type": "VEC3"
    },
    {
      "bufferView": 3,
      "componentType": 5126,
      "count": 22146,
      "max": [
        0.999984085559845,
        0.9999998807907104,
        0.9999883770942688,
        1.0
      ],
      "min": [
        -0.9999997615814209,
        -1.0,
        -0.9999973773956299,
        -1.0
      ],
      "type": "VEC4"
    },
    {
      "bufferView": 1,
      "componentType": 5126,
      "count": 22146,
      "max": [
        1.0,
        1.0
      ],
      "min": [
        1.5974044799804688e-05,
        0.004505157470703125
      ],
      "type": "VEC2"
    },
    {
      "bufferView": 1,
      "byteOffset": 177168,
      "componentType": 5126,
      "count": 22146,
      "max": [
        1.0,
        1.0
      ],
      "min": [
        1.5974044799804688e-05,
        0.004505157470703125
      ],
      "type": "VEC2"
    },
    {
      "bufferView": 1,
      "byteOffset": 354336,
      "componentType": 5126,
      "count": 22146,
      "max": [
        1.0,
        1.0
      ],
      "min": [
        1.5974044799804688e-05,
        0.004505157470703125
      ],
      "type": "VEC2"
    },
    {
      "bufferView": 1,
      "byteOffset": 531504,
      "componentType": 5126,
      "count": 22146,
      "max": [
        1.0,
        1.0
      ],
      "min": [
        1.5974044799804688e-05,
        0.004505157470703125
      ],
      "type": "VEC2"
    },
    {
      "bufferView": 0,
      "componentType": 5125,
      "count": 98553,
      "type": "SCALAR"
    }
  ],
  "asset": {
    "extras": {
      "author": "begimqulovamalika616 (https://sketchfab.com/ebblender)",
      "license": "CC-BY-4.0 (http://creativecommons.org/licenses/by/4.0/)",
      "source": "https://sketchfab.com/3d-models/ethereal-recurve-bow-a53696a51014459b844ecb0545f9b0bc",
      "title": "Ethereal Recurve Bow"
    },
    "generator": "Sketchfab-16.73.0",
    "version": "2.0"
  },
  "bufferViews": [
    {
      "buffer": 0,
      "byteLength": 394212,
      "name": "floatBufferViews",
      "target": 34963
    },
    {
      "buffer": 0,
      "byteLength": 708672,
      "byteOffset": 394212,
      "byteStride": 8,
      "name": "floatBufferViews",
      "target": 34962
    },
    {
      "buffer": 0,
      "byteLength": 531504,
      "byteOffset": 1102884,
      "byteStride": 12,
      "name": "floatBufferViews",
      "target": 34962
    },
    {
      "buffer": 0,
      "byteLength": 354336,
      "byteOffset": 1634388,
      "byteStride": 16,
      "name": "floatBufferViews",
      "target": 34962
    }
  ],
  "buffers": [
    {
      "byteLength": 1988724,
      "uri": "scene.bin"
    }
  ],
  "images": [
    {
      "uri": "textures/material_0_baseColor.jpeg"
    },
    {
      "uri": "textures/material_0_metallicRoughness.png"
    },
    {
      "uri": "textures/material_0_normal.jpeg"
    }
  ],
  "materials": [
    {
      "doubleSided": true,
      "name": "material_0",
      "normalTexture": {
        "index": 2
      },
      "pbrMetallicRoughness": {
        "baseColorTexture": {
          "index": 0
        },
        "metallicRoughnessTexture": {
          "index": 1
        }
      }
    }
  ],
  "meshes": [
    {
      "name": "Object_0",
      "primitives": [
        {
          "attributes": {
            "NORMAL": 1,
            "POSITION": 0,
            "TANGENT": 2,
            "TEXCOORD_0": 3,
            "TEXCOORD_1": 4,
            "TEXCOORD_2": 5,
            "TEXCOORD_3": 6
          },
          "indices": 7,
          "material": 0,
          "mode": 4
        }
      ]
    }
  ],
  "nodes": [
    {
      "children": [
        1
      ],
      "matrix": [
        1.0,
        0.0,
        0.0,
        0.0,
        0.0,
        2.220446049250313e-16,
        -1.0,
        0.0,
        0.0,
        1.0,
        2.220446049250313e-16,
        0.0,
        0.0,
        0.0,
        0.0,
        1.0
      ],
      "name": "Sketchfab_model"
    },
    {
      "children": [
        2
      ],
      "name": "root"
    },
    {
      "children": [
        3
      ],
      "matrix": [
        1.0,
        0.0,
        0.0,
        0.0,
        0.0,
        2.220446049250313e-16,
        1.0,
        0.0,
        0.0,
        -1.0,
        2.220446049250313e-16,
        0.0,
        0.0,
        0.0,
        0.0,
        1.0
      ],
      "name": "GLTF_SceneRootNode"
    },
    {
      "children": [
        4
      ],
      "name": "_0"
    },
    {
      "mesh": 0,
      "name": "Object_4"
    }
  ],
  "samplers": [
    {
      "magFilter": 9729,
      "minFilter": 9987,
      "wrapS": 10497,
      "wrapT": 10497
    }
  ],
  "scene": 0,
  "scenes": [
    {
      "name": "Sketchfab_Scene",
      "nodes": [
        0
      ]
    }
  ],
  "textures": [
    {
      "sampler": 0,
      "source": 0
    },
    {
      "sampler": 0,
      "source": 1
    },
    {
      "sampler": 0,
      "source": 2
    }
  ]
}
